<svg width="85" height="85" viewBox="0 0 85 85" fill="none" xmlns="http://www.w3.org/2000/svg">
<rect width="84.2761" height="84.2761" rx="28.092" fill="url(#paint0_linear_15740_43597)"/>
<path d="M42.4557 55.0608C38.9206 55.0621 35.4645 54.0151 32.5246 52.0521C29.5846 50.0891 27.2928 47.2983 25.9391 44.0327C24.5853 40.7671 24.2304 37.1734 24.9192 33.7061C25.6081 30.2388 27.3097 27.0536 29.8089 24.5535C32.3081 22.0533 35.4926 20.3505 38.9596 19.6603C42.4267 18.9702 46.0205 19.3237 49.2867 20.6762C52.5528 22.0287 55.3444 24.3194 57.3086 27.2586C59.2727 30.1978 60.321 33.6535 60.321 37.1886C60.3156 41.9257 58.4318 46.4674 55.0828 49.8177C51.7338 53.168 47.1928 55.0535 42.4557 55.0608ZM42.4557 21.3723C39.3269 21.3709 36.2681 22.2975 33.666 24.0349C31.064 25.7723 29.0357 28.2424 27.8378 31.1328C26.6398 34.0231 26.326 37.2038 26.9361 40.2725C27.5461 43.3413 29.0526 46.1601 31.265 48.3724C33.4774 50.5848 36.2962 52.0913 39.3649 52.7013C42.4336 53.3114 45.6143 52.9976 48.5047 51.7997C51.395 50.6017 53.8651 48.5734 55.6025 45.9714C57.3399 43.3694 58.2665 40.3105 58.2652 37.1817C58.2597 32.9905 56.5924 28.9724 53.6287 26.0088C50.665 23.0451 46.647 21.3777 42.4557 21.3723V21.3723Z" fill="white"/>
<path d="M59.1564 58.1292L45.3 44.2727C44.5482 43.5216 43.529 43.0996 42.4663 43.0996C41.4036 43.0996 40.3844 43.5216 39.6327 44.2727L33.6227 50.2827C34.2084 50.6831 34.8196 51.0448 35.4525 51.3654L41.0855 45.7256C41.4517 45.3673 41.9437 45.1666 42.4561 45.1666C42.9684 45.1666 43.4604 45.3673 43.8266 45.7256L57.683 59.582C57.9543 59.8546 58.1391 60.2014 58.2141 60.5787C58.289 60.956 58.251 61.347 58.1046 61.7027C57.9582 62.0584 57.71 62.363 57.3912 62.5782C57.0724 62.7934 56.6971 62.9097 56.3125 62.9124H28.6133C28.2287 62.9097 27.8534 62.7934 27.5346 62.5782C27.2158 62.363 26.9676 62.0584 26.8212 61.7027C26.6748 61.347 26.6367 60.956 26.7117 60.5787C26.7867 60.2014 26.9715 59.8546 27.2428 59.582L33.9448 52.8799C33.3263 52.5408 32.7269 52.168 32.1494 51.7629L25.79 58.1292C25.223 58.6877 24.8355 59.4027 24.6769 60.1826C24.5183 60.9626 24.5959 61.772 24.8997 62.5077C25.2035 63.2433 25.7198 63.8716 26.3825 64.3124C27.0452 64.7531 27.8243 64.9863 28.6202 64.982H56.3262C57.1212 64.9843 57.8989 64.7502 58.5605 64.3094C59.2221 63.8686 59.7377 63.2411 60.0418 62.5066C60.3459 61.7721 60.4247 60.9637 60.2683 60.1843C60.1119 59.4048 59.7272 58.6895 59.1633 58.1292H59.1564Z" fill="white"/>
<defs>
<linearGradient id="paint0_linear_15740_43597" x1="4.64391e-07" y1="84.2761" x2="84.2761" y2="4.64391e-07" gradientUnits="userSpaceOnUse">
<stop stop-color="#46BDC5"/>
<stop offset="1" stop-color="#5EDE99"/>
</linearGradient>
</defs>
</svg>
